<svg xmlns="http://www.w3.org/2000/svg" xmlns:xlink="http://www.w3.org/1999/xlink" width="13" height="11"><defs><path id="a" d="M1320.908 25.55h-1.02c.677.276 1.037 1.111 1.037 1.968 0 .72-.376 1.34-.909 1.78-.52.429-.618.609-.618.974 0 .312.557.842.848 1.06.85.636 1.125 1.227 1.125 2.214 0 1.23-1.125 2.454-3.164 2.454-1.788 0-3.297-.77-3.297-2 0-1.25 1.377-2.454 3.165-2.454.194 0 .373-.006.558-.006-.245-.252-.438-.56-.438-.941 0-.226.068-.444.163-.637a3.64 3.64 0 0 1-.299.01c-1.468 0-2.452-1.106-2.452-2.475 0-1.34 1.358-2.498 2.802-2.498h3.22zm-1.692 6.45a2.56 2.56 0 0 0-.8-.137c-1.237-.014-2.344.798-2.344 1.772 0 .994.893 1.822 2.129 1.822 1.737 0 2.343-.777 2.343-1.77 0-.121-.014-.238-.04-.352-.135-.563-.617-.842-1.288-1.335zm.552-4.413c-.143-1.153-.932-2.078-1.761-2.104-.83-.027-1.386.856-1.243 2.009.143 1.152.932 2.108 1.761 2.134.83.026 1.386-.887 1.243-2.04zm7.448-.145v.813h-2.307v2.442h-.77v-2.442h-2.306v-.813h2.307V25h.769v2.442z"/></defs><use fill="#34404b" xlink:href="#a" transform="translate(-1315 -25)"/></svg>