<svg xmlns="http://www.w3.org/2000/svg" xmlns:xlink="http://www.w3.org/1999/xlink" width="14" height="11"><defs><path id="a" d="M1297.537 26.302c-.48.22-.994.37-1.535.437a2.77 2.77 0 0 0 1.175-1.537 5.222 5.222 0 0 1-1.697.674 2.625 2.625 0 0 0-1.952-.877c-1.476 0-2.673 1.244-2.673 2.778 0 .217.024.429.07.632-2.222-.116-4.192-1.221-5.51-2.902a2.85 2.85 0 0 0-.362 1.397 2.81 2.81 0 0 0 1.189 2.312 2.588 2.588 0 0 1-1.211-.348v.035c0 1.345.921 2.468 2.144 2.723a2.581 2.581 0 0 1-1.207.047c.34 1.104 1.327 1.907 2.497 1.93a5.236 5.236 0 0 1-3.958 1.15 7.36 7.36 0 0 0 4.098 1.247c4.917 0 7.606-4.232 7.606-7.901 0-.12-.003-.24-.008-.36.523-.391.976-.88 1.334-1.437z"/></defs><use fill="#34404b" xlink:href="#a" transform="translate(-1284 -25)"/></svg>