<svg xmlns="http://www.w3.org/2000/svg" xmlns:xlink="http://www.w3.org/1999/xlink" width="11" height="11" viewBox="0 0 11 11"><defs><path id="tl0ha" d="M1354 26.826v7.348c0 1.004-.811 1.826-1.803 1.826h-7.253c-.991 0-1.802-.822-1.802-1.826v-7.348c0-1.004.81-1.826 1.802-1.826h7.253c.992 0 1.803.822 1.803 1.826zm-7.497 3.674c0 1.155.928 2.095 2.068 2.095 1.14 0 2.068-.94 2.068-2.095 0-.24-.04-.472-.115-.688h-3.906a2.108 2.108 0 0 0-.115.688zm6.14-.688h-1.062c.05.222.075.452.075.688 0 1.723-1.384 3.126-3.085 3.126-1.702 0-3.086-1.403-3.086-3.126 0-.236.026-.466.076-.688h-1.062v4.125c0 .379.305.688.679.688h6.786c.373 0 .679-.31.679-.688zm0-3.093a.343.343 0 0 0-.34-.344h-.678a.343.343 0 0 0-.34.344v.687c0 .189.153.344.34.344h.678c.187 0 .34-.155.34-.344z"/></defs><g><g transform="translate(-1343 -25)"><use fill="#34404b" xlink:href="#tl0ha"/></g></g></svg>